<svg width="95" height="60" viewBox="0 0 95 60" fill="none" xmlns="http://www.w3.org/2000/svg">
<path d="M7.74389 25.92C8.34122 24.384 9.17322 23.232 10.2399 22.464C11.3492 21.6533 12.3946 21.1627 13.3759 20.992C14.3999 20.7787 15.2319 20.8853 15.8719 21.312C16.5546 21.7387 16.7892 22.4 16.5759 23.296C17.3866 22.4853 18.5599 21.7387 20.0959 21.056C21.6319 20.3733 22.8479 19.904 23.7439 19.648C24.6399 19.392 25.4079 19.264 26.0479 19.264C27.4559 19.3493 27.8612 20.1173 27.2639 21.568C27.9892 21.696 28.5226 22.1653 28.8639 22.976C29.2052 23.7867 29.2479 24.6827 28.9919 25.664C28.7359 26.6453 28.1599 27.6053 27.2639 28.544C26.3679 29.4827 25.1519 30.1227 23.6159 30.464C22.1226 30.8053 20.8639 31.5947 19.8399 32.832C18.8586 34.0267 17.9839 35.52 17.2159 37.312C15.9359 40.3413 14.7839 44.6293 13.7599 50.176C13.4186 52.1813 12.0319 53.8667 9.59989 55.232C7.29589 56.5547 5.18389 56.9387 3.26389 56.384C1.08789 55.7867 0.127891 54.1867 0.383891 51.584C0.469224 49.7493 1.02389 47.3173 2.04789 44.288C3.07189 41.216 3.86122 38.912 4.41589 37.376C4.97056 35.7973 5.35456 34.6027 5.56789 33.792L7.74389 25.92ZM29.0854 17.792C28.8721 16.9387 28.9787 16.128 29.4054 15.36C29.8321 14.592 30.5787 13.824 31.6454 13.056C32.7547 12.2453 33.7574 11.776 34.6534 11.648L34.7174 11.584C34.9307 11.4987 35.1227 11.392 35.2934 11.264C35.5067 11.136 35.7201 11.008 35.9334 10.88C37.7254 9.34401 39.3467 7.63735 40.7974 5.76001C40.8401 5.71735 40.8614 5.67468 40.8614 5.63202C40.8614 5.58935 40.9041 5.52535 40.9894 5.44001C41.5867 4.07468 42.6534 3.07201 44.1894 2.43201C45.7254 1.74935 47.1974 1.45068 48.6054 1.53601C50.0134 1.57868 51.2721 1.98401 52.3814 2.75201C53.5334 3.52001 54.2374 4.65068 54.4934 6.14401C54.3227 7.33868 53.7467 8.78935 52.7654 10.496C53.0214 11.0507 53.3627 11.712 53.7894 12.48C54.2161 13.2053 54.3014 13.952 54.0454 14.72C52.9361 16.9813 51.8054 19.2427 50.6534 21.504C49.5441 23.7653 48.6267 25.7493 47.9014 27.456C47.1761 29.1627 46.5147 30.72 45.9174 32.128C45.3627 33.4933 44.7867 34.88 44.1894 36.288C42.1414 41.408 40.6481 45.5893 39.7094 48.832C38.8134 52.032 37.8747 54.6347 36.8934 56.64V56.832H36.8294C36.4454 57.8133 35.6987 58.5173 34.5894 58.944C33.5227 59.4133 32.4134 59.584 31.2614 59.456C30.1094 59.3707 29.1067 59.008 28.2534 58.368C27.4001 57.728 27.0161 56.8107 27.1014 55.616C27.2294 54.464 27.4001 53.3547 27.6134 52.288C27.8694 51.1787 28.2534 49.1733 28.7654 46.272C29.7894 40.4267 31.7521 32.192 34.6534 21.568C33.4161 21.3973 32.2214 20.928 31.0694 20.16C29.9601 19.392 29.2987 18.6027 29.0854 17.792ZM62.5184 9.47202C63.1584 8.23468 64.1824 7.01868 65.5904 5.82401C66.9984 4.62935 68.5771 3.62668 70.3264 2.81601C74.3797 0.938679 78.0064 0.725346 81.2064 2.17601C82.9131 2.94401 83.8304 3.45601 83.9584 3.71201C84.1291 3.96801 84.1931 4.24535 84.1504 4.54401C84.1077 4.84268 84.1077 5.29068 84.1504 5.88801C87.9477 4.39468 90.6784 5.48268 92.3424 9.15201C93.7931 12.4373 94.1771 16.9173 93.4944 22.592C92.7691 28.2667 91.3397 33.1093 89.2064 37.12C87.6277 41.6 85.1317 45.8027 81.7184 49.728C80.3957 51.3067 79.1584 52.5013 78.0064 53.312C76.8971 54.1653 76.1077 54.5493 75.6384 54.464C74.7851 54.6347 74.0171 54.8053 73.3344 54.976C72.3957 55.232 71.5851 55.36 70.9024 55.36C70.8171 55.4453 70.7317 55.5093 70.6464 55.552C70.6037 55.5947 70.5611 55.6587 70.5184 55.744L68.5984 56.32C68.5131 57.0027 67.9584 57.472 66.9344 57.728C65.9104 58.0267 64.7371 58.0907 63.4144 57.92C62.1344 57.7493 60.8331 57.3653 59.5104 56.768C58.1877 56.2133 57.2064 55.4027 56.5664 54.336C55.5424 52.032 54.8811 50.1973 54.5824 48.832C53.7291 44.3093 53.8144 38.5067 54.8384 31.424C55.6064 26.2187 56.9717 21.3973 58.9344 16.96C59.9157 14.656 61.1104 12.16 62.5184 9.47202ZM74.4864 16.704C71.3291 23.0187 69.2171 29.8027 68.1504 37.056C67.8091 39.5733 67.7451 41.92 67.9584 44.096H68.0864L68.1504 44.032C72.6731 37.2053 76.0864 29.8027 78.3904 21.824C79.1584 19.0507 79.4997 16.8533 79.4144 15.232C79.3717 13.6107 79.0944 12.5653 78.5824 12.096C78.4117 12.2667 78.3051 12.352 78.2624 12.352C78.2624 12.352 78.2411 12.3093 78.1984 12.224C78.0277 12.0107 77.7931 11.9253 77.4944 11.968C76.8971 12.7787 76.3424 13.6107 75.8304 14.464L74.4864 16.704Z" fill="url(#paint0_linear_761_25)"/>
<defs>
<linearGradient id="paint0_linear_761_25" x1="91.0879" y1="26.916" x2="1.08789" y2="26.916" gradientUnits="userSpaceOnUse">
<stop stop-color="#00FFFF"/>
<stop offset="1" stop-color="#FFC627"/>
</linearGradient>
</defs>
</svg>
