<svg width="22" height="24" viewBox="0 0 22 24" fill="none" xmlns="http://www.w3.org/2000/svg">
<path d="M0 5C0 2.23858 2.23858 0 5 0H17C19.7614 0 22 2.23858 22 5V20C22 22.2091 20.2091 24 18 24H4C1.79086 24 0 22.2091 0 20V5Z" fill="#D9D9D9"/>
<path d="M15.755 2H6.24502C5.08614 2 4.50671 2 4.03939 2.16261C3.15322 2.47096 2.45748 3.18719 2.15795 4.09946C2 4.58055 2 5.17705 2 6.37006V20.3742C2 21.2324 2.985 21.6878 3.6081 21.1176C3.97417 20.7826 4.52583 20.7826 4.8919 21.1176L5.375 21.5597C6.01659 22.1468 6.98341 22.1468 7.625 21.5597C8.26659 20.9726 9.2334 20.9726 9.875 21.5597C10.5166 22.1468 11.4834 22.1468 12.125 21.5597C12.7666 20.9726 13.7334 20.9726 14.375 21.5597C15.0166 22.1468 15.9834 22.1468 16.625 21.5597L17.1081 21.1176C17.4742 20.7826 18.0258 20.7826 18.3919 21.1176C19.015 21.6878 20 21.2324 20 20.3742V6.37006C20 5.17705 20 4.58055 19.842 4.09946C19.5425 3.18719 18.8468 2.47096 17.9606 2.16261C17.4933 2 16.9139 2 15.755 2Z" fill="black" stroke="#1C274C" stroke-width="1.5"/>
<path d="M3.07227 13V6.51H4.06227V13H3.07227ZM4.39227 13V6.51H4.72227V13H4.39227ZM5.05227 13V6.51H5.38227V13H5.05227ZM5.71227 13V6.51H6.70227V13H5.71227ZM7.69227 13V6.51H8.02227V13H7.69227ZM4.92027 13.957H5.66827C5.9616 13.957 6.17427 14.023 6.30627 14.155C6.4456 14.2797 6.51527 14.4593 6.51527 14.694C6.51527 14.8407 6.4676 14.98 6.37227 15.112C6.27693 15.244 6.15227 15.332 5.99827 15.376L6.59227 16.509H6.27327L5.70127 15.387H5.20627V16.509H4.92027V13.957ZM5.70127 15.134C5.87727 15.134 6.00927 15.0937 6.09727 15.013C6.17793 14.9397 6.21827 14.8333 6.21827 14.694C6.21827 14.5547 6.17793 14.441 6.09727 14.353C6.00927 14.2723 5.87727 14.232 5.70127 14.232H5.20627V15.134H5.70127ZM8.35742 13V6.51H9.34742V13H8.35742ZM9.67742 13V6.51H10.0074V13H9.67742ZM10.9974 13V6.51H11.3274V13H10.9974ZM11.6574 13V6.51H11.9874V13H11.6574ZM12.3174 13V6.51H13.3074V13H12.3174ZM10.9204 14.309L10.4034 14.463L10.3374 14.309L10.9974 13.957H11.2064V16.509H10.9204V14.309ZM13.6426 13V6.51H13.9726V13H13.6426ZM14.3026 13V6.51H14.6326V13H14.3026ZM15.6226 13V6.51H16.6126V13H15.6226ZM16.9426 13V6.51H17.9326V13H16.9426ZM18.2626 13V6.51H18.5926V13H18.2626ZM16.2826 13.946C16.5319 13.946 16.7262 14.0597 16.8656 14.287C17.0049 14.5217 17.0746 14.8407 17.0746 15.244C17.0746 15.662 17.0049 15.9847 16.8656 16.212C16.7336 16.4393 16.5392 16.553 16.2826 16.553C16.0259 16.553 15.8316 16.4393 15.6996 16.212C15.5602 15.9847 15.4906 15.662 15.4906 15.244C15.4906 14.8407 15.5602 14.5217 15.6996 14.287C15.8389 14.0597 16.0332 13.946 16.2826 13.946ZM16.2826 14.199C16.1286 14.199 16.0076 14.2907 15.9196 14.474C15.8316 14.6647 15.7876 14.9213 15.7876 15.244C15.7876 15.4273 15.7986 15.585 15.8206 15.717L16.6896 14.595C16.6529 14.4703 16.5979 14.3713 16.5246 14.298C16.4586 14.232 16.3779 14.199 16.2826 14.199ZM16.2826 16.3C16.4366 16.3 16.5576 16.212 16.6456 16.036C16.7336 15.8527 16.7776 15.5887 16.7776 15.244C16.7776 15.09 16.7666 14.9543 16.7446 14.837L15.8866 15.948C15.9672 16.1827 16.0992 16.3 16.2826 16.3Z" fill="#FF5B5B"/>
</svg>
