<svg width="2120" height="405" viewBox="0 0 2120 405" fill="none" xmlns="http://www.w3.org/2000/svg">
<g clip-path="url(#clip0_716_23)">
<path d="M518.642 340C515.491 340 512.897 338.981 510.858 336.942C508.819 334.903 507.8 332.309 507.8 329.158V133.724C507.8 130.573 508.819 127.979 510.858 125.94C512.897 123.901 515.491 122.882 518.642 122.882H570.628C584.157 122.882 596.204 125.755 606.768 131.5C617.332 137.06 625.579 144.937 631.51 155.13C637.626 165.138 640.684 176.721 640.684 189.88C640.684 202.483 637.626 213.695 631.51 223.518C625.579 233.341 617.332 241.032 606.768 246.592C596.204 252.152 584.157 254.932 570.628 254.932H529.484V329.158C529.484 332.309 528.465 334.903 526.426 336.942C524.387 338.981 521.793 340 518.642 340ZM634.846 340C632.437 340 630.491 339.537 629.008 338.61C627.711 337.683 626.506 336.293 625.394 334.44L572.018 249.372L593.702 243.812L643.464 323.32C646.244 327.768 646.707 331.66 644.854 334.996C643.186 338.332 639.85 340 634.846 340ZM529.484 234.082H570.628C580.08 234.082 588.42 232.229 595.648 228.522C603.061 224.63 608.899 219.348 613.162 212.676C617.425 206.004 619.556 198.405 619.556 189.88C619.556 180.799 617.425 172.829 613.162 165.972C608.899 158.929 603.061 153.462 595.648 149.57C588.42 145.678 580.08 143.732 570.628 143.732H529.484V234.082ZM737.474 341.39C722.462 341.39 709.118 338.147 697.442 331.66C685.951 324.988 676.87 315.814 670.198 304.138C663.711 292.462 660.468 279.118 660.468 264.106C660.468 248.909 663.526 235.565 669.642 224.074C675.943 212.398 684.561 203.224 695.496 196.552C706.43 189.88 719.033 186.544 733.304 186.544C747.389 186.544 759.621 189.787 770 196.274C780.564 202.575 788.718 211.379 794.464 222.684C800.209 233.989 803.082 246.87 803.082 261.326C803.082 264.291 802.155 266.701 800.302 268.554C798.448 270.222 796.039 271.056 793.074 271.056H674.924V253.264H795.298L783.344 261.882C783.529 251.133 781.583 241.495 777.506 232.97C773.428 224.445 767.59 217.773 759.992 212.954C752.578 208.135 743.682 205.726 733.304 205.726C722.74 205.726 713.473 208.228 705.504 213.232C697.534 218.236 691.326 225.186 686.878 234.082C682.615 242.793 680.484 252.801 680.484 264.106C680.484 275.411 682.893 285.419 687.712 294.13C692.716 302.841 699.48 309.698 708.006 314.702C716.531 319.706 726.354 322.208 737.474 322.208C744.146 322.208 750.818 321.096 757.49 318.872C764.347 316.463 769.814 313.497 773.892 309.976C775.93 308.308 778.247 307.474 780.842 307.474C783.436 307.289 785.66 307.937 787.514 309.42C789.923 311.644 791.128 314.053 791.128 316.648C791.313 319.243 790.294 321.467 788.07 323.32C781.954 328.509 774.17 332.865 764.718 336.386C755.266 339.722 746.184 341.39 737.474 341.39ZM893.356 341.39C878.714 341.39 865.648 338.054 854.158 331.382C842.852 324.525 833.864 315.258 827.192 303.582C820.705 291.906 817.462 278.747 817.462 264.106C817.462 249.279 820.612 236.028 826.914 224.352C833.215 212.676 841.833 203.502 852.768 196.83C863.702 189.973 876.305 186.544 890.576 186.544C901.881 186.544 912.26 188.768 921.712 193.216C931.349 197.664 939.782 204.336 947.01 213.232C949.048 215.456 949.79 217.865 949.234 220.46C948.678 222.869 947.102 225.001 944.508 226.854C942.469 228.337 940.152 228.893 937.558 228.522C935.148 227.966 933.017 226.576 931.164 224.352C920.414 212.12 906.885 206.004 890.576 206.004C880.197 206.004 871.023 208.506 863.054 213.51C855.27 218.514 849.154 225.371 844.706 234.082C840.443 242.793 838.312 252.801 838.312 264.106C838.312 275.226 840.628 285.141 845.262 293.852C849.895 302.563 856.382 309.42 864.722 314.424C873.062 319.428 882.606 321.93 893.356 321.93C900.584 321.93 907.163 321.003 913.094 319.15C919.21 317.111 924.584 314.053 929.218 309.976C931.442 308.123 933.758 307.103 936.168 306.918C938.577 306.733 940.801 307.474 942.84 309.142C945.064 311.181 946.268 313.497 946.454 316.092C946.824 318.687 945.99 320.911 943.952 322.764C930.422 335.181 913.557 341.39 893.356 341.39ZM1051.74 341.39C1036.91 341.39 1023.66 338.054 1011.99 331.382C1000.31 324.71 991.136 315.536 984.464 303.86C977.792 292.184 974.456 278.933 974.456 264.106C974.456 249.094 977.792 235.75 984.464 224.074C991.136 212.398 1000.31 203.224 1011.99 196.552C1023.66 189.88 1036.91 186.544 1051.74 186.544C1066.57 186.544 1079.72 189.88 1091.22 196.552C1102.89 203.224 1112.07 212.398 1118.74 224.074C1125.41 235.75 1128.84 249.094 1129.02 264.106C1129.02 278.933 1125.59 292.184 1118.74 303.86C1112.07 315.536 1102.89 324.71 1091.22 331.382C1079.72 338.054 1066.57 341.39 1051.74 341.39ZM1051.74 321.93C1062.49 321.93 1072.13 319.428 1080.65 314.424C1089.18 309.42 1095.85 302.563 1100.67 293.852C1105.49 285.141 1107.9 275.226 1107.9 264.106C1107.9 252.986 1105.49 243.071 1100.67 234.36C1095.85 225.464 1089.18 218.514 1080.65 213.51C1072.13 208.506 1062.49 206.004 1051.74 206.004C1040.99 206.004 1031.35 208.506 1022.83 213.51C1014.3 218.514 1007.54 225.464 1002.53 234.36C997.715 243.071 995.306 252.986 995.306 264.106C995.306 275.226 997.715 285.141 1002.53 293.852C1007.54 302.563 1014.3 309.42 1022.83 314.424C1031.35 319.428 1040.99 321.93 1051.74 321.93ZM1171.21 246.314C1171.77 234.823 1174.73 224.537 1180.11 215.456C1185.67 206.375 1192.8 199.239 1201.51 194.05C1210.41 188.861 1220.23 186.266 1230.98 186.266C1239.51 186.266 1246.09 187.471 1250.72 189.88C1255.35 192.289 1257.11 195.811 1256 200.444C1255.26 203.224 1253.96 205.077 1252.11 206.004C1250.44 206.931 1248.31 207.301 1245.72 207.116C1243.31 206.931 1240.53 206.745 1237.38 206.56C1227 205.633 1217.73 206.745 1209.58 209.896C1201.61 212.861 1195.21 217.495 1190.39 223.796C1185.76 230.097 1183.44 237.603 1183.44 246.314H1171.21ZM1172.88 340C1169.54 340 1166.95 339.073 1165.1 337.22C1163.24 335.367 1162.32 332.772 1162.32 329.436V198.498C1162.32 195.162 1163.24 192.567 1165.1 190.714C1166.95 188.861 1169.54 187.934 1172.88 187.934C1176.22 187.934 1178.81 188.861 1180.66 190.714C1182.52 192.567 1183.44 195.162 1183.44 198.498V329.436C1183.44 332.772 1182.52 335.367 1180.66 337.22C1178.81 339.073 1176.22 340 1172.88 340ZM1339.39 341.39C1324.75 341.39 1311.59 338.054 1299.92 331.382C1288.24 324.525 1278.97 315.258 1272.12 303.582C1265.45 291.906 1262.11 278.655 1262.11 263.828C1262.11 249.187 1265.35 236.028 1271.84 224.352C1278.51 212.676 1287.5 203.502 1298.81 196.83C1310.11 189.973 1322.9 186.544 1337.17 186.544C1349.59 186.544 1360.8 189.231 1370.81 194.606C1380.82 199.795 1388.88 206.745 1394.99 215.456V133.724C1394.99 130.388 1396.01 127.793 1398.05 125.94C1400.09 123.901 1402.68 122.882 1405.84 122.882C1408.99 122.882 1411.58 123.901 1413.62 125.94C1415.66 127.793 1416.68 130.388 1416.68 133.724V264.94C1416.31 279.396 1412.69 292.462 1405.84 304.138C1399.16 315.629 1389.99 324.71 1378.31 331.382C1366.82 338.054 1353.85 341.39 1339.39 341.39ZM1339.39 321.93C1350.14 321.93 1359.69 319.428 1368.03 314.424C1376.55 309.235 1383.22 302.285 1388.04 293.574C1393.05 284.863 1395.55 274.948 1395.55 263.828C1395.55 252.893 1393.05 243.071 1388.04 234.36C1383.22 225.464 1376.55 218.514 1368.03 213.51C1359.69 208.506 1350.14 206.004 1339.39 206.004C1328.83 206.004 1319.28 208.506 1310.76 213.51C1302.23 218.514 1295.47 225.464 1290.47 234.36C1285.46 243.071 1282.96 252.893 1282.96 263.828C1282.96 274.948 1285.46 284.863 1290.47 293.574C1295.47 302.285 1302.23 309.235 1310.76 314.424C1319.28 319.428 1328.83 321.93 1339.39 321.93ZM1527.88 340C1524.91 340 1522.32 338.981 1520.09 336.942C1518.05 334.718 1517.04 332.123 1517.04 329.158V133.724C1517.04 130.573 1518.05 127.979 1520.09 125.94C1522.13 123.901 1524.73 122.882 1527.88 122.882H1658.26C1661.41 122.882 1664 123.901 1666.04 125.94C1668.08 127.793 1669.1 130.295 1669.1 133.446C1669.1 136.226 1668.08 138.635 1666.04 140.674C1664 142.713 1661.41 143.732 1658.26 143.732H1538.72V220.46H1625.73C1628.88 220.46 1631.48 221.479 1633.52 223.518C1635.56 225.557 1636.58 228.059 1636.58 231.024C1636.58 233.989 1635.56 236.491 1633.52 238.53C1631.48 240.569 1628.88 241.588 1625.73 241.588H1538.72V329.158C1538.72 332.123 1537.7 334.718 1535.66 336.942C1533.62 338.981 1531.03 340 1527.88 340ZM1729.71 340C1722.29 340 1715.62 337.961 1709.69 333.884C1703.94 329.807 1699.4 324.154 1696.07 316.926C1692.92 309.698 1691.34 301.358 1691.34 291.906V133.446C1691.34 130.295 1692.27 127.793 1694.12 125.94C1696.16 123.901 1698.75 122.882 1701.91 122.882C1705.06 122.882 1707.56 123.901 1709.41 125.94C1711.45 127.793 1712.47 130.295 1712.47 133.446V291.906C1712.47 299.875 1714.04 306.362 1717.2 311.366C1720.53 316.37 1724.7 318.872 1729.71 318.872H1736.66C1739.44 318.872 1741.66 319.891 1743.33 321.93C1745 323.783 1745.83 326.285 1745.83 329.436C1745.83 332.587 1744.62 335.181 1742.22 337.22C1739.99 339.073 1737.03 340 1733.32 340H1729.71ZM1827.83 341.39C1813 341.39 1799.75 338.054 1788.07 331.382C1776.4 324.71 1767.22 315.536 1760.55 303.86C1753.88 292.184 1750.54 278.933 1750.54 264.106C1750.54 249.094 1753.88 235.75 1760.55 224.074C1767.22 212.398 1776.4 203.224 1788.07 196.552C1799.75 189.88 1813 186.544 1827.83 186.544C1842.65 186.544 1855.81 189.88 1867.3 196.552C1878.98 203.224 1888.15 212.398 1894.82 224.074C1901.5 235.75 1904.93 249.094 1905.11 264.106C1905.11 278.933 1901.68 292.184 1894.82 303.86C1888.15 315.536 1878.98 324.71 1867.3 331.382C1855.81 338.054 1842.65 341.39 1827.83 341.39ZM1827.83 321.93C1838.58 321.93 1848.21 319.428 1856.74 314.424C1865.26 309.42 1871.94 302.563 1876.75 293.852C1881.57 285.141 1883.98 275.226 1883.98 264.106C1883.98 252.986 1881.57 243.071 1876.75 234.36C1871.94 225.464 1865.26 218.514 1856.74 213.51C1848.21 208.506 1838.58 206.004 1827.83 206.004C1817.08 206.004 1807.44 208.506 1798.91 213.51C1790.39 218.514 1783.62 225.464 1778.62 234.36C1773.8 243.071 1771.39 252.986 1771.39 264.106C1771.39 275.226 1773.8 285.141 1778.62 293.852C1783.62 302.563 1790.39 309.42 1798.91 314.424C1807.44 319.428 1817.08 321.93 1827.83 321.93ZM1964.46 340C1962.05 340 1959.92 339.351 1958.07 338.054C1956.21 336.757 1954.91 335.089 1954.17 333.05L1910.81 202.946C1909.69 198.313 1909.79 194.699 1911.08 192.104C1912.38 189.324 1914.98 187.934 1918.87 187.934C1921.28 187.934 1923.41 188.583 1925.26 189.88C1927.11 191.177 1928.5 193.216 1929.43 195.996L1968.07 314.146H1961.96L1997.82 196.274C1998.56 193.865 1999.77 191.919 2001.43 190.436C2003.29 188.768 2005.6 187.934 2008.38 187.934C2011.16 187.934 2013.39 188.675 2015.06 190.158C2016.91 191.641 2018.21 193.679 2018.95 196.274L2053.14 311.366H2048.42L2086.22 195.996C2088.08 190.621 2091.51 187.934 2096.51 187.934C2100.59 187.934 2103.37 189.509 2104.85 192.66C2106.33 195.625 2106.33 199.054 2104.85 202.946L2061.48 333.05C2060.74 335.089 2059.44 336.757 2057.59 338.054C2055.92 339.351 2053.88 340 2051.47 340C2049.06 340 2046.84 339.351 2044.8 338.054C2042.95 336.757 2041.74 335.089 2041.19 333.05L2006.16 216.846H2009.5L1974.47 333.05C1973.73 335.274 1972.43 337.035 1970.58 338.332C1968.72 339.444 1966.68 340 1964.46 340Z" fill="black"/>
<path d="M119.9 207.436C358.977 846.156 598.993 -473.888 332.333 207.436C82.3397 846.183 -135.112 -473.888 119.9 207.436Z" stroke="black" stroke-width="11"/>
<path d="M98.7835 103.671C102.746 101.984 107.079 104.924 107.014 109.253L106.278 158.26C106.199 163.567 99.8692 166.261 96.1273 162.58L61.5715 128.594C58.5186 125.591 59.5297 120.377 63.4919 118.691L98.7835 103.671Z" fill="#FFC627"/>
<path d="M339.419 312.872C335.826 310.727 335.419 305.622 338.63 302.973L375.132 272.856C379.394 269.339 385.716 273.113 384.786 278.619L376.827 325.775C376.127 329.922 371.555 332.055 367.962 329.91L339.419 312.872Z" fill="#FFC627"/>
<path d="M375 122.359C388.807 122.359 400 113.304 400 102.133C400 90.962 388.807 81.9062 375 81.9062C361.193 81.9062 350 90.962 350 102.133C350 113.304 361.193 122.359 375 122.359Z" fill="#FF4343"/>
<path d="M67 290.644C80.8071 290.644 92 281.589 92 270.418C92 259.247 80.8071 250.191 67 250.191C53.1929 250.191 42 259.247 42 270.418C42 281.589 53.1929 290.644 67 290.644Z" fill="#FF4343"/>
</g>
<defs>
<clipPath id="clip0_716_23">
<rect width="2120" height="405" fill="white"/>
</clipPath>
</defs>
</svg>
